# xmcd
#
# Track frame offsets: 
#        150
#        16684
#        32063
#        48814
#        67252
#        84986
#        104733
#        121778
#        135267
#        150980
#        168106
#        185993
#
# Disc length: 2698 seconds
#
# Revision: 0
# Processed by: cddbd v1.5.2PL0 Copyright (c) Steve Scherf et al.
# Submitted via: ExactAudioCopy v0.99pb5
#
DISCID=8f0a880c
DTITLE=Mobile Unit (Rockfors and Ronander) - Road Songs
DYEAR=2008
DGENRE=Rock
TTITLE0=What's Going On
TTITLE1=Motorcity
TTITLE2=Run For Miles
TTITLE3=Kickstart My Broken Heart
TTITLE4=Back To The Roots And A Bottle Of Wine
TTITLE5=Baby Let's Fall In Love
TTITLE6=Free Spirit
TTITLE7=Twistin' The St Tropez
TTITLE8=Adam and Eve
TTITLE9=Fool For Your Love
TTITLE10=Something About You
TTITLE11=Perfect World
EXTD=
EXTT0=
EXTT1=
EXTT2=
EXTT3=
EXTT4=
EXTT5=
EXTT6=
EXTT7=
EXTT8=
EXTT9=
EXTT10=
EXTT11=
PLAYORDER=
